# xmcd
#
# Track frame offsets:
#	150
#	72112
#	82479
#	90440
#	96315
#	99791
#	112113
#	139918
#	180330
#	211792
#
# Disc length: 4462 seconds
#
# Revision: 0
# Processed by: cddbd v1.5.2PL0 Copyright (c) Steve Scherf et al.
# Submitted via: VUPlayer 2.49
#
DISCID=82116c0a
DTITLE=ravel boulez2 - ravel boulez2
DYEAR=1999
DGENRE=Alternative Rock
TTITLE0=Piste1 - Piste1
TTITLE1=Piste2 - Piste2
TTITLE2=Piste3 - Piste3
TTITLE3=Piste4 - Piste4
TTITLE4=Piste5 - Piste5
TTITLE5=Piste6 - Piste6
TTITLE6=Piste7 - Piste7
TTITLE7=Piste8 - Piste8
TTITLE8=Piste9 - Piste9
TTITLE9=Piste10 - Piste10
EXTD=
EXTT0=
EXTT1=
EXTT2=
EXTT3=
EXTT4=
EXTT5=
EXTT6=
EXTT7=
EXTT8=
EXTT9=
PLAYORDER=
